<svg xmlns="http://www.w3.org/2000/svg" viewBox="0 0 64 64">
  <defs>
    <linearGradient id="bg" x1="0%" x2="100%" y1="0%" y2="100%">
      <stop offset="0%" stop-color="#17120f"/>
      <stop offset="100%" stop-color="#2c1b15"/>
    </linearGradient>
    <linearGradient id="note" x1="0%" x2="100%" y1="0%" y2="100%">
      <stop offset="0%" stop-color="#ffd58a"/>
      <stop offset="100%" stop-color="#f06a2f"/>
    </linearGradient>
    <linearGradient id="route" x1="0%" x2="100%" y1="0%" y2="0%">
      <stop offset="0%" stop-color="#f06a2f"/>
      <stop offset="100%" stop-color="#d8342b"/>
    </linearGradient>
  </defs>

  <rect x="4" y="4" width="56" height="56" rx="16" fill="url(#bg)"/>
  <rect x="6" y="6" width="52" height="52" rx="14" fill="none" stroke="#f7e8cf" stroke-opacity=".14" stroke-width="1.5"/>

  <path
    d="M14 42C21 42 24 34 31 34H39"
    fill="none"
    stroke="url(#route)"
    stroke-linecap="round"
    stroke-width="4.5"
  />
  <circle cx="14" cy="42" r="4.5" fill="#d8342b"/>
  <circle cx="31" cy="34" r="3.6" fill="#f06a2f"/>

  <path
    d="M42 17v24.5c0 4.6-3.6 8-8.8 8-4 0-6.9-2.2-6.9-5.6 0-3.5 3.2-6 7.7-6 1.6 0 2.8.2 4 .7V23.4l12-3.7v20.3c0 4.6-3.6 8-8.8 8-4 0-6.9-2.2-6.9-5.6 0-3.5 3.2-6 7.7-6 1.6 0 2.8.2 4 .7V17.9z"
    fill="url(#note)"
  />
</svg>
